<svg width="284.375px" height="279.2px" xmlns="http://www.w3.org/2000/svg"
  viewBox="107.8125 -64.6 284.375 279.2" style="background: rgba(0, 0, 0, 0);"
  preserveAspectRatio="xMidYMid">
  <defs>
    <filter id="editing-scratch" x="-100%" y="-100%" width="300%" height="300%">
      <!-- COLOR -->
      <feFlood flood-color="#ddd" flood-opacity="0.75" result="COLOR-blu"></feFlood>
      <feFlood flood-color="#666" flood-opacity="0.4" result="COLOR-red"></feFlood>
      <!-- COLOR END -->

      <!-- Texture -->
      <feTurbulence baseFrequency=".05" type="fractalNoise" numOctaves="3" seed="0"
        result="Texture_10"></feTurbulence>
      <feColorMatrix type="matrix"
        values="0 0 0 0 0,
    0 0 0 0 0,
    0 0 0 0 0,
    0 0 0 -2.1 1.1" in="Texture_10"
        result="Texture_20"></feColorMatrix>

      <feColorMatrix result="Texture_30" type="matrix"
        values="0 0 0 0 0,
    0 0 0 0 0,
    0 0 0 0 0,
    0 0 0 -1.7 1.8" in="Texture_10"></feColorMatrix>
      <!-- Texture -->

      <!-- FILL -->
      <feOffset dx="-3" dy="4" in="SourceAlpha" result="FILL_10"></feOffset>
      <feDisplacementMap scale="17" in="FILL_10" in2="Texture_10" result="FILL_20"></feDisplacementMap>
      <feComposite operator="in" in="Texture_30" in2="FILL_20" result="FILL_40"></feComposite>
      <feComposite operator="in" in="COLOR-blu" in2="FILL_40" result="FILL_50"></feComposite>
      <!-- FILL END-->

      <!-- OUTLINE -->
      <feMorphology operator="dilate" radius="3" in="SourceGraphic" result="OUTLINE_10"></feMorphology>
      <feComposite operator="out" in="OUTLINE_10" in2="SourceGraphic" result="OUTLINE_20"></feComposite>
      <feDisplacementMap scale="7" in="OUTLINE_20" in2="Texture_10" result="OUTLINE_30"></feDisplacementMap>
      <feComposite operator="arithmetic" k2="-1" k3="1" in="Texture_20" in2="OUTLINE_30"
        result="OUTLINE_40"></feComposite>
      <!-- OUTLINE END-->

      <!-- BEVEL OUTLINE -->
      <feConvolveMatrix order="8,8" divisor="1"
        kernelMatrix="1 0 0 0 0 0 0 0 0 1 0 0 0 0 0 0 0 0 1 0 0 0 0 0 0 0 0 1 0 0 0 0 0 0 0 0 1 0 0 0 0 0 0 0 0 1 0 0 0 0 0 0 0 0 1 0 0 0 0 0 0 0 0 1 "
        in="SourceGraphic" result="BEVEL_10"></feConvolveMatrix>
      <feMorphology operator="dilate" radius="2" in="BEVEL_10" result="BEVEL_20"></feMorphology>
      <feComposite operator="out" in="BEVEL_20" in2="BEVEL_10" result="BEVEL_30"></feComposite>
      <feDisplacementMap scale="7" in="BEVEL_30" in2="Texture_10" result="BEVEL_40"></feDisplacementMap>
      <feComposite operator="arithmetic" k2="-1" k3="1" in="Texture_20" in2="BEVEL_40"
        result="BEVEL_50"></feComposite>
      <feOffset dx="-7" dy="-7" in="BEVEL_50" result="BEVEL_60"></feOffset>
      <feComposite operator="out" in="BEVEL_60" in2="OUTLINE_10" result="BEVEL_70"></feComposite>
      <!-- BEVEL OUTLINE END -->

      <!-- BEVEL FILL -->
      <feOffset dx="-9" dy="-9" in="BEVEL_10" result="BEVEL-FILL_10"></feOffset>
      <feComposite operator="out" in="BEVEL-FILL_10" in2="OUTLINE_10" result="BEVEL-FILL_20"></feComposite>
      <feDisplacementMap scale="17" in="BEVEL-FILL_20" in2="Texture_10" result="BEVEL-FILL_30"></feDisplacementMap>
      <feComposite operator="in" in="COLOR-red" in2="BEVEL-FILL_30" result="BEVEL-FILL_50"></feComposite> <!-- -->
      <!-- BEVEL FILL END-->

      <feMerge result="merge2">
        <feMergeNode in="BEVEL-FILL_50"></feMergeNode>
        <feMergeNode in="BEVEL_70"></feMergeNode>
        <feMergeNode in="FILL_50"></feMergeNode>
        <feMergeNode in="OUTLINE_40"></feMergeNode>
      </feMerge>
    </filter>
  </defs>
  <g filter="url(#editing-scratch)">
    <g transform="translate(152.13500547409058, 122.69500350952148)">
      <path
        d="M73.45-48.97L73.45-48.97L77.20-48.97L77.20-48.97Q79.47-48.97 81.54-48.57L81.54-48.57L81.54-48.57Q83.62-48.16 83.62-45.62L83.62-45.62L83.62-45.62Q84.55-40.27 77.33-40.40L77.33-40.40L77.33-40.40Q75.32-40.54 73.65-40.67L73.65-40.67L73.65-40.67Q71.98-40.81 70.91-40.74L70.91-40.74L70.91-40.74Q69.84-40.67 69.97-40.00L69.97-40.00L69.97-40.00Q71.31-36.12 72.85-31.31L72.85-31.31L72.85-31.31Q74.39-26.49 76.26-21.67L76.26-21.67L76.26-21.67Q81.08-9.77 85.36-4.55L85.36-4.55L85.36-4.55Q83.08-1.74 80.07 0.13L80.07 0.13L80.07 0.13Q77.06 2.01 76.86 2.01L76.86 2.01L76.86 2.01Q76.66 2.01 76.53 1.87L76.53 1.87L57.66-37.86L21.14-28.90L19.80-23.28L19.80-23.28Q15.92-7.89 11.10-1.87L11.10-1.87L11.10-1.87Q10.30-0.54 7.76-1.61L7.76-1.61L7.76-1.61Q3.48-3.21 3.48-4.28L3.48-4.28L3.48-4.28Q3.48-4.55 6.29-12.04L6.29-12.04L6.29-12.04Q9.10-19.53 11.97-27.23L11.97-27.23L11.97-27.23Q14.85-34.92 17.99-43.35L17.99-43.35L17.99-43.35Q21.14-51.78 23.95-59.40L23.95-59.40L23.95-59.40Q26.76-67.03 29.03-73.12L29.03-73.12L29.03-73.12Q31.31-79.20 32.24-81.95L32.24-81.95L32.24-81.95Q33.18-84.69 33.51-86.76L33.51-86.76L33.51-86.76Q33.85-88.84 34.52-90.31L34.52-90.31L34.52-90.31Q35.86-93.38 41.21-93.38L41.21-93.38L41.21-93.38Q46.96-90.17 50.10-85.02L50.10-85.02L50.10-85.02Q53.25-79.87 55.46-73.99L55.46-73.99L55.46-73.99Q57.66-68.10 59.80-62.08L59.80-62.08L59.80-62.08Q61.94-56.06 65.56-51.11L65.56-51.11L65.56-51.11Q66.76-49.23 69.17-49.10L69.17-49.10L69.17-49.10Q71.58-48.97 73.45-48.97ZM40.00-77.87L40.00-77.87L40.00-77.87Q38.93-69.70 35.19-61.14L35.19-61.14L35.19-61.14Q31.44-52.58 29.17-47.83L29.17-47.83L29.17-47.83Q26.89-43.08 25.29-39.07L25.29-39.07L25.29-39.07Q34.38-39.07 47.63-44.42L47.63-44.42L47.63-44.42Q50.97-45.89 54.05-47.09L54.05-47.09L54.05-47.09Q47.76-73.99 40.00-77.87ZM93.92 0.13L93.92 0.13L93.92 0.13Q90.84-0.13 90.84-2.54L90.84-2.54L90.84-2.54Q90.84-5.49 94.19-8.03L94.19-8.03L94.19-8.03Q95.53-8.96 96.26-8.96L96.26-8.96L96.26-8.96Q97.00-8.96 97.40-8.83L97.40-8.83L97.40-8.83Q100.21-8.83 101.21-7.69L101.21-7.69L101.21-7.69Q102.21-6.56 102.21-4.68L102.21-4.68L102.21-4.68Q102.21-2.81 101.41-1.87L101.41-1.87L101.41-1.87Q100.61-0.94 99.41-0.54L99.41-0.54L99.41-0.54Q97.40 0.13 93.92 0.13ZM118.14 0.27L118.14 0.27L112.12 0L112.12-31.17L112.12-31.17Q112.78-41.21 113.19-48.97L113.19-48.97L113.19-48.97Q113.59-56.73 114.66-62.35L114.66-62.35L114.66-62.35Q115.73-67.96 118.14-71.78L118.14-71.78L118.14-71.78Q120.54-75.59 125.36-77.87L125.36-77.87L125.36-77.87Q134.06-82.15 157.34-82.15L157.34-82.15L157.34-82.15Q167.37-82.15 174.33-80.21L174.33-80.21L174.33-80.21Q181.28-78.27 184.63-76.53L184.63-76.53L184.63-76.53Q192.25-72.78 192.25-66.09L192.25-66.09L192.25-66.09Q192.25-59.40 188.44-53.98L188.44-53.98L188.44-53.98Q184.63-48.57 178.54-44.62L178.54-44.62L178.54-44.62Q172.45-40.67 164.83-38.13L164.83-38.13L164.83-38.13Q157.20-35.59 149.58-33.98L149.58-33.98L149.58-33.98Q135.93-31.31 123.35-31.31L123.35-31.31L122.82-1.34L122.82-1.34Q122.82 0.27 118.14 0.27ZM123.22-46.42L123.22-46.42L123.22-46.42Q123.22-39.74 128.97-39.74L128.97-39.74L128.97-39.74Q129.78-39.74 131.78-39.80L131.78-39.80L131.78-39.80Q133.79-39.87 138.81-40.20L138.81-40.20L138.81-40.20Q143.82-40.54 149.44-41.54L149.44-41.54L149.44-41.54Q155.06-42.54 160.75-44.15L160.75-44.15L160.75-44.15Q166.43-45.76 170.98-48.16L170.98-48.16L170.98-48.16Q181.28-53.78 181.28-62.48L181.28-62.48L181.28-62.48Q179.28-71.18 165.36-73.58L165.36-73.58L165.36-73.58Q161.22-74.39 157.94-74.39L157.94-74.39L157.94-74.39Q154.66-74.39 150.18-74.05L150.18-74.05L150.18-74.05Q145.70-73.72 139.81-71.98L139.81-71.98L139.81-71.98Q133.92-70.24 129.91-67.30L129.91-67.30L129.91-67.30Q125.90-64.35 125.49-60.47L125.49-60.47L125.49-60.47Q125.36-58.87 124.83-56.73L124.83-56.73L124.83-56.73Q123.22-49.90 123.22-46.42Z"
        fill="#000"></path>
    </g>
  </g>
  <style>text {
    font-size: 64px;
    font-family: Arial Black;
    dominant-baseline: central;
    text-anchor: middle;
    }</style>
</svg>